<?xml version="1.0" encoding="utf-8"?>
<!-- Generator: Adobe Illustrator 12.0.0, SVG Export Plug-In . SVG Version: 6.00 Build 51448)  -->
<!DOCTYPE svg PUBLIC "-//W3C//DTD SVG 1.1//EN" "http://www.w3.org/Graphics/SVG/1.1/DTD/svg11.dtd" [
	<!ENTITY ns_svg "http://www.w3.org/2000/svg">
	<!ENTITY ns_xlink "http://www.w3.org/1999/xlink">
    <!ENTITY fill_color "#FFFFFF">
    <!ENTITY stroke_color "#000000">
]>
<svg  version="1.1" id="Layer_2" xmlns="&ns_svg;" xmlns:xlink="&ns_xlink;" width="54.949" height="54.959"
	 viewBox="0 0 54.949 54.959" overflow="visible" enable-background="new 0 0 54.949 54.959" xml:space="preserve">
<g transform="translate(4,4)">
<g transform="scale(0.84)">
<rect x="1.5" y="1.5" fill="&fill_color;" stroke="&stroke_color;" stroke-width="3" width="51.949" height="51.959"/>
<rect x="6.658" y="5.84" fill="&fill_color;" stroke="&stroke_color;" stroke-width="3" width="13.478" height="14.549"/>
<rect x="20.942" y="5.84" fill="&fill_color;" stroke="&stroke_color;" stroke-width="3" width="13.479" height="14.549"/>
<rect x="35.227" y="5.84" fill="&fill_color;" stroke="&stroke_color;" stroke-width="3" width="13.479" height="14.549"/>
<rect x="6.658" y="20.291" fill="&fill_color;" stroke="&stroke_color;" stroke-width="3" width="13.478" height="14.549"/>
<rect x="20.942" y="20.291" fill="&fill_color;" stroke="&stroke_color;" stroke-width="3" width="13.479" height="14.549"/>
<rect x="35.227" y="20.291" fill="&fill_color;" stroke="&stroke_color;" stroke-width="3" width="13.479" height="14.549"/>
<rect x="6.658" y="34.576" fill="&fill_color;" stroke="&stroke_color;" stroke-width="3" width="13.478" height="14.549"/>
<rect x="20.942" y="34.576" fill="&fill_color;" stroke="&stroke_color;" stroke-width="3" width="13.479" height="14.549"/>
<rect x="35.227" y="34.576" fill="&fill_color;" stroke="&stroke_color;" stroke-width="3" width="13.479" height="14.549"/>
<rect x="35.574" y="34.949" fill="&fill_color;" stroke="&stroke_color;" width="13.001" height="13.533"/>
<polyline fill="&fill_color;" stroke="&stroke_color;" stroke-width="2" points="24.162,18.896 28.529,9.607 31.355,19.035 "/>
<polyline fill="&fill_color;" stroke="&stroke_color;" stroke-width="2" points="34.142,23.3 26.418,27.298 33.406,32.761 "/>
<polyline fill="&fill_color;" stroke="&stroke_color;" stroke-width="2" points="10.161,37.37 13.115,44.962 17.996,36.001 "/>
<polyline fill="&fill_color;" stroke="&stroke_color;" stroke-width="2" points="7.54,23.118 16.515,27.253 7.102,31.625 "/>
<line fill="&fill_color;" stroke="&stroke_color;" stroke-width="2" x1="20.018" y1="13.784" x2="6.336" y2="17.447"/>
<polyline fill="&fill_color;" stroke="&stroke_color;" stroke-width="2" points="38.626,6.959 42.237,14.848 45.958,6.868 "/>
<line fill="&fill_color;" stroke="&stroke_color;" stroke-width="2" x1="36.108" y1="27.135" x2="48.367" y2="32.333"/>
<polyline fill="&fill_color;" stroke="&stroke_color;" stroke-width="2" points="22.207,40.013 28.664,35.288 34.247,41.667 "/>
</g>
</g>
</svg>


